<svg width="27" height="26" viewBox="0 0 27 26" fill="none" xmlns="http://www.w3.org/2000/svg">
<path d="M17.4375 15.1667H16.5487L16.2338 14.8742C17.3363 13.6392 18 12.0358 18 10.2917C18 6.4025 14.7262 3.25 10.6875 3.25C6.64875 3.25 3.375 6.4025 3.375 10.2917C3.375 14.1808 6.64875 17.3333 10.6875 17.3333C12.4987 17.3333 14.1637 16.6942 15.4462 15.6325L15.75 15.9358V16.7917L21.375 22.1975L23.0513 20.5833L17.4375 15.1667ZM10.6875 15.1667C7.88625 15.1667 5.625 12.9892 5.625 10.2917C5.625 7.59417 7.88625 5.41667 10.6875 5.41667C13.4888 5.41667 15.75 7.59417 15.75 10.2917C15.75 12.9892 13.4888 15.1667 10.6875 15.1667Z" fill="white"/>
</svg>
