<svg width="27" height="26" viewBox="0 0 27 26" fill="none" xmlns="http://www.w3.org/2000/svg">
<path d="M13.5 6.50004C14.7375 6.50004 15.75 7.47504 15.75 8.66671C15.75 9.85837 14.7375 10.8334 13.5 10.8334C12.2625 10.8334 11.25 9.85837 11.25 8.66671C11.25 7.47504 12.2625 6.50004 13.5 6.50004ZM13.5 16.25C16.5375 16.25 20.025 17.6475 20.25 18.4167V19.5H6.75V18.4275C6.975 17.6475 10.4625 16.25 13.5 16.25V16.25ZM13.5 4.33337C11.0137 4.33337 9 6.27254 9 8.66671C9 11.0609 11.0137 13 13.5 13C15.9863 13 18 11.0609 18 8.66671C18 6.27254 15.9863 4.33337 13.5 4.33337V4.33337ZM13.5 14.0834C10.4962 14.0834 4.5 15.535 4.5 18.4167V21.6667H22.5V18.4167C22.5 15.535 16.5038 14.0834 13.5 14.0834V14.0834Z" fill="white"/>
</svg>
