<svg width="72" height="72" viewBox="0 0 72 72" fill="none" xmlns="http://www.w3.org/2000/svg">
<path d="M30 66H60C61.6078 66.0559 63.1666 65.4417 64.3041 64.3042C65.4417 63.1666 66.0558 61.6078 66 60V30C66.0558 28.3923 65.4417 26.8335 64.3041 25.6959C63.1666 24.5583 61.6078 23.9442 60 24H48V12C48.0558 10.3922 47.4417 8.83345 46.3041 7.69589C45.1665 6.55834 43.6077 5.94415 42 6.00003H12C10.3922 5.94415 8.83339 6.55834 7.69584 7.69589C6.55828 8.83345 5.9441 10.3922 5.99997 12V42C5.945 43.6076 6.55947 45.1658 7.69683 46.3032C8.83418 47.4405 10.3925 48.055 12 48H24V60C23.945 61.6075 24.5595 63.1658 25.6968 64.3032C26.8342 65.4405 28.3925 66.055 30 66ZM60 30V60H30V48H42C43.6075 48.055 45.1658 47.4405 46.3031 46.3032C47.4405 45.1658 48.0549 43.6076 48 42V30H60ZM42 12V42H12V12H42Z" fill="#F6F4FB"/>
</svg>
